Coordinates
version=1
nRows=17
nColumns=24
inDegrees=yes

Units are S.I. units (second, meters, Newtons, ...)
Angles are in degrees.

endheader
time	pelvis_tilt	pelvis_list	pelvis_rotation	pelvis_tx	pelvis_ty	pelvis_tz	hip_flexion_r	hip_adduction_r	hip_rotation_r	knee_angle_r	ankle_angle_r	subtalar_angle_r	mtp_angle_r	hip_flexion_l	hip_adduction_l	hip_rotation_l	knee_angle_l	ankle_angle_l	subtalar_angle_l	mtp_angle_l	lumbar_extension	lumbar_bending	lumbar_rotation
      1.20400000	      3.06201642	      0.32407702	     -9.23163185	     -0.02480548	      0.87668858	      0.30199789	    -25.33446825	      0.64938994	      3.55263287	     -8.78905558	     21.28121906	     13.53783754	     10.32123773	     26.29666729	     -2.91231796	    -13.39264880	     -3.93192967	      7.95341360	     -2.88084849	      2.84506986	    -10.84085610	     -1.30739463	     15.51280255
      1.20816667	      3.04522836	      0.36847669	     -9.32697832	     -0.01891549	      0.87561950	      0.30189693	    -25.48174513	      0.50206899	      3.56956478	     -9.24430851	     21.12689554	     13.50549024	     10.43660820	     26.45304032	     -2.89163257	    -13.25449480	     -4.70018847	      7.95014020	     -3.08774642	      2.85613102	    -10.79738111	     -1.44873225	     15.55038834
      1.21233333	      2.97146801	      0.44922767	     -9.43981993	     -0.01294289	      0.87450979	      0.30181570	    -25.53997128	      0.31791591	      3.60320452	     -9.75105927	     20.98711712	     13.54414494	     10.72042821	     26.65964204	     -2.85184663	    -13.19056661	     -5.49193703	      7.92317789	     -3.15112340	      2.89347889	    -10.67817414	     -1.66184577	     15.63192135
      1.21650000	      3.00187020	      0.54377262	     -9.53865877	     -0.00687409	      0.87359181	      0.30170291	    -25.73468120	      0.10595361	      3.59450336	    -10.20765866	     20.77573726	     13.51013855	     10.84053326	     26.72054189	     -2.76811275	    -13.17022257	     -6.24858893	      7.78050635	     -3.26765314	      2.91070606	    -10.66362246	     -1.87605346	     15.65311783
      1.22066667	      2.96739410	      0.65129059	     -9.65130152	     -0.00075809	      0.87262654	      0.30159723	    -25.82167388	     -0.11795483	      3.59781208	    -10.72390195	     20.45651362	     13.49914521	     15.98664662	     26.84686438	     -2.69111123	    -13.20525654	     -7.03130740	      7.62112567	     -3.28165582	      3.88672513	    -10.58097523	     -2.12424851	     15.68700635
      1.22483333	      2.93561439	      0.76525792	     -9.71931134	      0.00542981	      0.87169825	      0.30142667	    -25.92151027	     -0.32732871	      3.57194814	    -11.23837848	     20.14996956	     13.46325759	     16.02302167	     26.94775933	     -2.57047066	    -13.10609754	     -7.77916503	      7.40378529	     -3.46230496	      3.89990241	    -10.47784054	     -2.37202410	     15.71346340
      1.22900000	      2.89301341	      0.89331373	     -9.80018591	      0.01166809	      0.87081247	      0.30125140	    -25.98397635	     -0.55699960	      3.55871287	    -11.79858319	     19.83125465	     13.42525218	     16.09568793	     27.03955667	     -2.43765126	    -13.04849411	     -8.50526528	      7.10787643	     -3.66985656	      3.92189387	    -10.36017985	     -2.63284388	     15.71836096
      1.23316667	      2.82014648	      1.01733455	     -9.86291576	      0.01791871	      0.86991773	      0.30102970	    -25.98221337	     -0.77031548	      3.51823353	    -12.42548085	     19.53912118	     13.41725404	     16.36321642	     27.15560233	     -2.29275007	    -12.91335170	     -9.21805868	      6.71577315	     -4.05175677	      4.00405472	    -10.21064682	     -2.86521959	     15.71908483
      1.23733333	      2.79062321	      1.18156833	     -9.91507150	      0.02428602	      0.86914863	      0.30078190	    -26.03357477	     -1.03199044	      3.43458267	    -13.01868901	     19.04519712	     13.34179466	     19.80318815	     27.20031254	     -2.09055429	    -12.83595946	     -9.88601293	      6.29320962	     -4.36979985	      5.09751921	    -10.09342324	     -3.17488328	     15.68393623
      1.24150000	      2.71662981	      1.34026079	     -9.97101053	      0.03067504	      0.86837849	      0.30054229	    -26.01585780	     -1.27766343	      3.40449673	    -13.65622196	     18.56677791	     13.26595585	     19.84335737	     27.29715993	     -1.90779386	    -12.79482423	    -10.57770291	      5.82798734	     -4.63609665	      5.10683651	     -9.92066404	     -3.46925060	     15.65316215
      1.24566667	      2.62976457	      1.51310090	    -10.00427674	      0.03709664	      0.86763731	      0.30025055	    -25.95849618	     -1.52617524	      3.34727575	    -14.34422198	     18.07319835	     13.19247080	     19.94092920	     27.40058386	     -1.69148200	    -12.70114562	    -11.24631647	      5.30890498	     -5.01969101	      5.12977427	     -9.73235947	     -3.77206642	     15.60278870
      1.24983333	      2.55591760	      1.70084818	    -10.01637211	      0.04354023	      0.86695474	      0.29987377	    -25.87811287	     -1.79560677	      3.17964672	    -15.09133219	     17.53792259	     13.16796100	     23.01316967	     27.47591724	     -1.42700525	    -12.51660666	    -11.87231894	      4.71654493	     -5.65056488	      5.97521129	     -9.56479081	     -4.07528074	     15.52148122
      1.25400000	      2.44723076	      1.87789311	    -10.02568303	      0.04999745	      0.86629663	      0.29952349	    -25.75190219	     -2.03387271	      3.11426158	    -15.85514626	     16.96122974	     13.03541481	     23.09949412	     27.60902133	     -1.19500663	    -12.40880729	    -12.55408138	      4.14209560	     -6.11651866	      5.99197912	     -9.35444085	     -4.36575214	     15.44596117
      1.25816667	      2.33928991	      2.07971117	    -10.01828907	      0.05649431	      0.86569101	      0.29911961	    -25.59844743	     -2.29733095	      2.98609292	    -16.66396083	     16.34400592	     12.96569085	     23.30404928	     27.73562368	     -0.92065057	    -12.26633919	    -13.21637683	      3.55374564	     -6.65719545	      6.03073775	     -9.14129053	     -4.68972881	     15.34626114
      1.26233333	      2.24724569	      2.29778446	    -10.00485176	      0.06306158	      0.86517362	      0.29873144	    -25.45984750	     -2.57495306	      2.86109260	    -17.46312863	     15.61941472	     12.86698123	     23.42825626	     27.85707142	     -0.64354679	    -12.23671230	    -13.92056666	      3.03148483	     -6.96034111	      6.04929394	     -8.93154656	     -5.05767179	     15.27024012
      1.26650000	      2.10664689	      2.49953108	     -9.95914496	      0.06953650	      0.86461701	      0.29822246	    -25.19613727	     -2.82224469	      2.67645116	    -18.40954181	     14.99748033	     12.78879543	     23.80562022	     28.03877022	     -0.34748788	    -12.01262661	    -14.61619077	      2.43758939	     -7.66661046	      6.10888188	     -8.69604410	     -5.34625958	     15.12184027
      1.27066667	      1.98145680	      2.72665454	     -9.90927448	      0.07608427	      0.86415417	      0.29772802	    -24.94441426	     -3.09669405	      2.48590223	    -19.34479824	     14.24779163	     12.70020883	     24.28085457	     28.20684306	     -0.03599930	    -11.87197137	    -15.33298984	      1.90528004	     -8.17667246	      6.17896732	     -8.45980176	     -5.69171192	     14.98660869
